<?xml version="1.0" encoding="UTF-8"?>
<svg id="Layer_2" xmlns="http://www.w3.org/2000/svg" viewBox="0 0 797.52 180.31">
  <defs>
    <style>
      .cls-1, .cls-2, .cls-3 {
        fill: #fff;
      }

      .cls-2 {
        fill-rule: evenodd;
      }

      .cls-4 {
        fill: #151516;
        stroke: #8e918f;
        stroke-miterlimit: 10;
        stroke-width: 2px;
      }

      .cls-3 {
        font-family: Roboto-Bold, Roboto;
        font-size: 63.67px;
        font-weight: 700;
      }
    </style>
  </defs>
  <g id="katman_1">
    <g>
      <rect class="cls-4" x="1" y="1" width="795.52" height="178.31" rx="16" ry="16"/>
      <g>
        <text class="cls-3" transform="translate(203.38 111.22)"><tspan x="0" y="0">Sign in with Github</tspan></text>
        <g>
          <path class="cls-2" d="M112.63,35.24c-31.09,0-56.31,25.21-56.31,56.31,0,24.88,16.13,45.98,38.51,53.43,2.81.52,3.85-1.22,3.85-2.71,0-1.34-.05-5.78-.08-10.48-15.66,3.41-18.97-6.64-18.97-6.64-2.56-6.51-6.25-8.24-6.25-8.24-5.11-3.49.39-3.42.39-3.42,5.65.4,8.63,5.8,8.63,5.8,5.02,8.61,13.17,6.12,16.39,4.68.51-3.64,1.96-6.12,3.57-7.53-12.51-1.42-25.65-6.25-25.65-27.83,0-6.15,2.2-11.17,5.8-15.11-.58-1.42-2.51-7.15.55-14.9,0,0,4.73-1.51,15.49,5.77,4.49-1.25,9.31-1.87,14.09-1.9,4.79.02,9.61.65,14.11,1.9,10.75-7.29,15.47-5.77,15.47-5.77,3.07,7.76,1.14,13.48.55,14.9,3.61,3.94,5.79,8.97,5.79,15.11,0,21.63-13.17,26.39-25.71,27.78,2.02,1.75,3.82,5.17,3.82,10.43,0,7.53-.06,13.6-.06,15.45,0,1.5,1.01,3.25,3.87,2.7,22.36-7.45,38.48-28.55,38.48-53.42,0-31.1-25.21-56.31-56.31-56.31Z"/>
          <path class="cls-1" d="M77.65,116.08c-.12.28-.56.36-.97.17-.41-.18-.64-.57-.51-.85.12-.29.56-.37.97-.18.41.18.64.57.5.85Z"/>
          <path class="cls-1" d="M79.93,118.62c-.27.25-.79.13-1.15-.26-.37-.39-.44-.92-.16-1.17.28-.25.79-.13,1.15.26.37.4.44.92.16,1.17Z"/>
          <path class="cls-1" d="M82.15,121.87c-.35.24-.91.02-1.26-.49-.35-.5-.35-1.1,0-1.34.35-.24.91-.02,1.26.47.34.51.34,1.11,0,1.35Z"/>
          <path class="cls-1" d="M85.19,125c-.31.34-.97.25-1.45-.22-.49-.45-.63-1.1-.32-1.44.31-.34.97-.24,1.46.22.49.45.64,1.1.31,1.44Z"/>
          <path class="cls-1" d="M89.39,126.82c-.14.44-.77.64-1.41.45-.64-.19-1.05-.71-.93-1.15.13-.44.77-.65,1.41-.45.64.19,1.05.7.92,1.15Z"/>
          <path class="cls-1" d="M93.99,127.16c.02.46-.53.85-1.19.86-.67.02-1.22-.36-1.23-.82,0-.47.53-.85,1.2-.86.67-.01,1.22.36,1.22.82Z"/>
          <path class="cls-1" d="M98.28,126.43c.08.45-.39.92-1.05,1.04-.65.12-1.26-.16-1.34-.61-.08-.46.39-.93,1.05-1.05.67-.12,1.26.16,1.35.62Z"/>
        </g>
      </g>
    </g>
  </g>
</svg>