<?xml version="1.0" encoding="UTF-8"?>
<svg id="Layer_2" xmlns="http://www.w3.org/2000/svg" xmlns:xlink="http://www.w3.org/1999/xlink" viewBox="0 0 797.52 180.31">
  <defs>
    <style>
      .cls-1 {
        fill: none;
      }

      .cls-2 {
        fill: #151516;
        stroke: #8e918f;
        stroke-miterlimit: 10;
        stroke-width: 2px;
      }

      .cls-3 {
        fill: #36a852;
      }

      .cls-4 {
        fill: #f9bc15;
      }

      .cls-5 {
        fill: #fff;
        font-family: Roboto-Bold, Roboto;
        font-size: 63.67px;
        font-weight: 700;
      }

      .cls-6 {
        fill: #557ebf;
      }

      .cls-7 {
        fill: #e94435;
      }

      .cls-8 {
        clip-path: url(#clippath);
      }
    </style>
    <clipPath id="clippath">
      <rect class="cls-1" x="58.08" y="44.43" width="91.44" height="91.44"/>
    </clipPath>
  </defs>
  <g id="katman_1">
    <g>
      <rect class="cls-2" x="1" y="1" width="795.52" height="178.31" rx="16" ry="16"/>
      <g>
        <g class="cls-8">
          <g>
            <path class="cls-6" d="M147.69,91.19c0-3.24-.29-6.36-.83-9.35h-43.06v17.69h24.61c-1.06,5.71-4.28,10.56-9.12,13.8v11.47h14.78c8.65-7.96,13.63-19.68,13.63-33.6Z"/>
            <path class="cls-3" d="M103.8,135.87c12.34,0,22.69-4.09,30.26-11.08l-14.78-11.47c-4.09,2.74-9.33,4.36-15.48,4.36-11.91,0-21.99-8.04-25.58-18.85h-15.27v11.85c7.52,14.94,22.98,25.19,40.86,25.19Z"/>
            <path class="cls-4" d="M78.22,98.84c-.91-2.74-1.43-5.67-1.43-8.69s.52-5.94,1.43-8.69v-11.85h-15.27c-3.1,6.17-4.86,13.15-4.86,20.53s1.77,14.36,4.86,20.53l15.27-11.85Z"/>
            <path class="cls-7" d="M103.8,62.62c6.71,0,12.74,2.31,17.48,6.84l13.11-13.11c-7.92-7.38-18.27-11.91-30.59-11.91-17.87,0-33.33,10.25-40.86,25.19l15.27,11.85c3.6-10.81,13.67-18.85,25.58-18.85Z"/>
          </g>
        </g>
        <text class="cls-5" transform="translate(187.48 109.91)"><tspan x="0" y="0">Sign in with Google</tspan></text>
      </g>
    </g>
  </g>
</svg>