<?xml version="1.0" encoding="UTF-8"?>
<svg id="Layer_2" xmlns="http://www.w3.org/2000/svg" xmlns:xlink="http://www.w3.org/1999/xlink" viewBox="0 0 796.52 179.31">
  <defs>
    <style>
      .cls-1 {
        stroke: #8e918f;
      }

      .cls-1, .cls-2 {
        fill: none;
      }

      .cls-3 {
        fill: #fff;
      }

      .cls-4 {
        fill: #151516;
      }

      .cls-5 {
        fill: #36a852;
      }

      .cls-6 {
        fill: #f9bc15;
      }

      .cls-7 {
        fill: #557ebf;
      }

      .cls-8 {
        fill: #e94435;
      }

      .cls-9 {
        clip-path: url(#clippath);
      }
    </style>
    <clipPath id="clippath">
      <rect class="cls-2" x="53.08" y="43.93" width="91.44" height="91.44"/>
    </clipPath>
  </defs>
  <g id="katman_1">
    <rect class="cls-4" x=".5" y=".5" width="795.52" height="178.31" rx="16" ry="16"/>
    <g class="cls-9">
      <g>
        <path class="cls-7" d="M142.69,90.69c0-3.24-.29-6.36-.83-9.35h-43.06v17.69h24.61c-1.06,5.71-4.28,10.56-9.12,13.8v11.47h14.78c8.65-7.96,13.63-19.68,13.63-33.6Z"/>
        <path class="cls-5" d="M98.8,135.37c12.34,0,22.69-4.09,30.26-11.08l-14.78-11.47c-4.09,2.74-9.33,4.36-15.48,4.36-11.91,0-21.99-8.04-25.58-18.85h-15.27v11.85c7.52,14.94,22.98,25.19,40.86,25.19Z"/>
        <path class="cls-6" d="M73.21,98.34c-.91-2.74-1.43-5.67-1.43-8.69s.52-5.94,1.43-8.69v-11.85h-15.27c-3.1,6.17-4.86,13.15-4.86,20.53s1.77,14.36,4.86,20.53l15.27-11.85Z"/>
        <path class="cls-8" d="M98.8,62.12c6.71,0,12.74,2.31,17.48,6.84l13.11-13.11c-7.92-7.38-18.27-11.91-30.59-11.91-17.87,0-33.33,10.25-40.86,25.19l15.27,11.85c3.6-10.81,13.67-18.85,25.58-18.85Z"/>
      </g>
    </g>
    <path class="cls-3" d="M218.8,100.79c0-.94-.15-1.77-.44-2.5-.27-.73-.76-1.4-1.47-2-.71-.6-1.71-1.19-3-1.75-1.27-.58-2.9-1.18-4.88-1.78-2.17-.67-4.17-1.41-6-2.22-1.81-.83-3.4-1.79-4.75-2.88-1.35-1.1-2.41-2.36-3.16-3.78-.75-1.44-1.13-3.09-1.13-4.97s.39-3.54,1.16-5.06c.79-1.52,1.91-2.83,3.34-3.94,1.46-1.13,3.18-1.99,5.16-2.59,1.98-.62,4.17-.94,6.56-.94,3.38,0,6.28.62,8.72,1.87,2.46,1.25,4.34,2.93,5.66,5.03,1.33,2.1,2,4.43,2,6.97h-7.78c0-1.5-.32-2.82-.97-3.97-.62-1.17-1.58-2.08-2.88-2.75-1.27-.67-2.89-1-4.84-1-1.85,0-3.4.28-4.63.84-1.23.56-2.15,1.32-2.75,2.28-.6.96-.91,2.04-.91,3.25,0,.85.2,1.64.59,2.34.4.69,1,1.33,1.81,1.94.81.58,1.83,1.14,3.06,1.66,1.23.52,2.68,1.02,4.34,1.5,2.52.75,4.72,1.58,6.59,2.5,1.88.9,3.44,1.92,4.69,3.06,1.25,1.15,2.19,2.45,2.81,3.91.62,1.44.94,3.07.94,4.91s-.39,3.65-1.16,5.19c-.77,1.52-1.88,2.82-3.31,3.91-1.42,1.06-3.13,1.89-5.13,2.47-1.98.56-4.19.84-6.63.84-2.19,0-4.34-.29-6.47-.88-2.1-.58-4.02-1.47-5.75-2.66-1.73-1.21-3.1-2.71-4.13-4.5-1.02-1.81-1.53-3.93-1.53-6.34h7.84c0,1.48.25,2.74.75,3.78.52,1.04,1.24,1.9,2.16,2.56.92.65,1.98,1.13,3.19,1.44,1.23.31,2.54.47,3.94.47,1.83,0,3.36-.26,4.59-.78,1.25-.52,2.19-1.25,2.81-2.19.62-.94.94-2.02.94-3.25ZM240.93,78.7v33.82h-7.56v-33.82h7.56ZM232.87,69.82c0-1.15.37-2.09,1.13-2.84.77-.77,1.83-1.16,3.19-1.16s2.39.39,3.16,1.16c.77.75,1.16,1.7,1.16,2.84s-.39,2.06-1.16,2.81c-.77.75-1.82,1.13-3.16,1.13s-2.42-.37-3.19-1.13c-.75-.75-1.13-1.69-1.13-2.81ZM270.84,78.7h6.84v32.88c0,3.04-.65,5.63-1.94,7.75-1.29,2.13-3.09,3.74-5.41,4.84-2.31,1.13-4.99,1.69-8.03,1.69-1.29,0-2.73-.19-4.31-.56-1.56-.37-3.08-.98-4.56-1.81-1.46-.81-2.68-1.89-3.66-3.22l3.53-4.44c1.21,1.44,2.54,2.49,4,3.16,1.46.67,2.99,1,4.59,1,1.73,0,3.2-.32,4.41-.97,1.23-.62,2.18-1.55,2.84-2.78.67-1.23,1-2.73,1-4.5v-25.38l.69-7.66ZM247.87,95.98v-.66c0-2.56.31-4.9.94-7,.63-2.13,1.52-3.95,2.69-5.47,1.17-1.54,2.58-2.72,4.25-3.53,1.67-.83,3.55-1.25,5.66-1.25s4.05.4,5.59,1.19c1.56.79,2.86,1.93,3.91,3.41,1.04,1.46,1.85,3.21,2.44,5.25.6,2.02,1.05,4.27,1.34,6.75v2.09c-.27,2.42-.73,4.63-1.38,6.63s-1.5,3.73-2.56,5.19c-1.06,1.46-2.38,2.58-3.94,3.38-1.54.79-3.36,1.19-5.47,1.19s-3.93-.43-5.59-1.28c-1.65-.85-3.06-2.05-4.25-3.59-1.17-1.54-2.06-3.35-2.69-5.44-.62-2.1-.94-4.39-.94-6.84ZM255.4,95.32v.66c0,1.54.15,2.98.44,4.31.31,1.33.78,2.51,1.41,3.53.65,1,1.46,1.79,2.44,2.38,1,.56,2.18.84,3.53.84,1.77,0,3.22-.37,4.34-1.13,1.15-.75,2.02-1.76,2.63-3.03.62-1.29,1.06-2.73,1.31-4.31v-5.66c-.12-1.23-.39-2.38-.78-3.44-.37-1.06-.89-1.99-1.53-2.78-.65-.81-1.46-1.44-2.44-1.87-.98-.46-2.14-.69-3.47-.69s-2.53.29-3.53.88c-1,.58-1.82,1.39-2.47,2.41-.62,1.02-1.09,2.21-1.41,3.56-.31,1.35-.47,2.8-.47,4.34ZM292.97,85.92v26.6h-7.53v-33.82h7.09l.44,7.22ZM291.62,94.35l-2.44-.03c.02-2.4.35-4.59,1-6.59.67-2,1.58-3.72,2.75-5.16,1.19-1.44,2.6-2.54,4.25-3.31,1.65-.79,3.48-1.19,5.5-1.19,1.63,0,3.09.23,4.41.69,1.33.44,2.47,1.16,3.41,2.16.96,1,1.69,2.3,2.19,3.91.5,1.58.75,3.53.75,5.84v21.85h-7.56v-21.88c0-1.62-.24-2.91-.72-3.84-.46-.96-1.14-1.64-2.03-2.03-.88-.42-1.97-.62-3.28-.62s-2.45.27-3.47.81c-1.02.54-1.89,1.28-2.59,2.22-.69.94-1.22,2.02-1.59,3.25-.37,1.23-.56,2.54-.56,3.94ZM345.13,78.7v33.82h-7.56v-33.82h7.56ZM337.06,69.82c0-1.15.38-2.09,1.13-2.84.77-.77,1.83-1.16,3.19-1.16s2.39.39,3.16,1.16c.77.75,1.16,1.7,1.16,2.84s-.39,2.06-1.16,2.81c-.77.75-1.82,1.13-3.16,1.13s-2.42-.37-3.19-1.13c-.75-.75-1.13-1.69-1.13-2.81ZM360.85,85.92v26.6h-7.53v-33.82h7.09l.44,7.22ZM359.5,94.35l-2.44-.03c.02-2.4.35-4.59,1-6.59.67-2,1.58-3.72,2.75-5.16,1.19-1.44,2.6-2.54,4.25-3.31,1.65-.79,3.48-1.19,5.5-1.19,1.62,0,3.09.23,4.41.69,1.33.44,2.47,1.16,3.41,2.16.96,1,1.69,2.3,2.19,3.91.5,1.58.75,3.53.75,5.84v21.85h-7.56v-21.88c0-1.62-.24-2.91-.72-3.84-.46-.96-1.14-1.64-2.03-2.03-.88-.42-1.97-.62-3.28-.62s-2.45.27-3.47.81-1.89,1.28-2.59,2.22c-.69.94-1.22,2.02-1.59,3.25s-.56,2.54-.56,3.94ZM414.14,105.01l7.81-26.32h4.81l-1.31,7.88-7.88,25.94h-4.31l.88-7.5ZM409.54,78.7l6.09,26.44.5,7.38h-4.81l-9.16-33.82h7.38ZM434.08,104.82l5.91-26.13h7.34l-9.13,33.82h-4.81l.69-7.69ZM427.57,78.7l7.72,26,.97,7.81h-4.31l-7.97-25.97-1.31-7.84h4.91ZM460.51,78.7v33.82h-7.56v-33.82h7.56ZM452.45,69.82c0-1.15.37-2.09,1.13-2.84.77-.77,1.84-1.16,3.19-1.16s2.39.39,3.15,1.16c.77.75,1.16,1.7,1.16,2.84s-.38,2.06-1.16,2.81c-.77.75-1.82,1.13-3.15,1.13s-2.42-.37-3.19-1.13c-.75-.75-1.13-1.69-1.13-2.81ZM484.27,78.7v5.5h-19.06v-5.5h19.06ZM470.71,70.41h7.53v32.75c0,1.04.15,1.84.44,2.41.31.54.74.91,1.28,1.09.54.19,1.18.28,1.91.28.52,0,1.02-.03,1.5-.09.48-.06.86-.12,1.16-.19l.03,5.75c-.63.19-1.35.35-2.19.5-.81.15-1.75.22-2.82.22-1.73,0-3.26-.3-4.59-.91-1.33-.62-2.37-1.64-3.12-3.03-.75-1.4-1.12-3.25-1.12-5.56v-33.22ZM497.52,64.51v48.01h-7.5v-48.01h7.5ZM496.21,94.35l-2.44-.03c.02-2.33.34-4.49.97-6.47.64-1.98,1.54-3.7,2.68-5.16,1.17-1.48,2.56-2.61,4.19-3.41,1.63-.81,3.43-1.22,5.41-1.22,1.67,0,3.17.23,4.5.69,1.36.46,2.52,1.2,3.5,2.22.98,1,1.72,2.31,2.22,3.94.52,1.6.78,3.56.78,5.88v21.72h-7.56v-21.78c0-1.63-.24-2.92-.72-3.88-.46-.96-1.14-1.65-2.03-2.06-.9-.44-1.99-.66-3.28-.66-1.36,0-2.56.27-3.59.81-1.02.54-1.88,1.28-2.56,2.22-.69.94-1.21,2.02-1.56,3.25-.33,1.23-.5,2.54-.5,3.94ZM577.28,89.26v17.38c-.64.85-1.66,1.79-3.03,2.81-1.35,1-3.15,1.86-5.4,2.59-2.25.73-5.06,1.09-8.41,1.09-2.86,0-5.47-.48-7.85-1.44-2.38-.98-4.43-2.41-6.16-4.28-1.71-1.87-3.03-4.16-3.97-6.84-.94-2.71-1.41-5.79-1.41-9.25v-3.16c0-3.44.43-6.5,1.28-9.19.87-2.71,2.13-5,3.75-6.88,1.62-1.87,3.58-3.29,5.87-4.25,2.31-.98,4.93-1.47,7.85-1.47,3.73,0,6.81.62,9.25,1.87,2.46,1.23,4.36,2.94,5.69,5.13,1.33,2.19,2.18,4.69,2.53,7.5h-7.69c-.25-1.58-.74-3-1.47-4.25-.71-1.25-1.73-2.23-3.06-2.94-1.31-.73-3.02-1.09-5.13-1.09-1.81,0-3.41.34-4.78,1.03-1.37.69-2.52,1.7-3.44,3.03-.9,1.33-1.57,2.96-2.03,4.88-.46,1.92-.69,4.1-.69,6.56v3.22c0,2.5.26,4.72.78,6.66.54,1.94,1.31,3.57,2.31,4.91,1.02,1.33,2.26,2.34,3.72,3.03,1.46.67,3.1,1,4.94,1s3.26-.15,4.41-.44c1.15-.31,2.05-.68,2.72-1.09.69-.44,1.22-.85,1.59-1.25v-9.03h-9.47v-5.84h17.28ZM583.78,95.98v-.72c0-2.44.36-4.7,1.07-6.78.7-2.1,1.73-3.93,3.06-5.47,1.36-1.56,3-2.77,4.94-3.63,1.96-.88,4.17-1.31,6.62-1.31s4.69.44,6.62,1.31c1.96.85,3.62,2.06,4.97,3.63,1.35,1.54,2.39,3.36,3.1,5.47.71,2.08,1.06,4.34,1.06,6.78v.72c0,2.44-.35,4.7-1.06,6.78-.71,2.08-1.74,3.91-3.1,5.47-1.35,1.54-3,2.75-4.94,3.63-1.94.85-4.14,1.28-6.6,1.28s-4.7-.43-6.66-1.28c-1.93-.88-3.58-2.08-4.94-3.63-1.35-1.56-2.39-3.39-3.09-5.47-.71-2.08-1.07-4.34-1.07-6.78ZM591.31,95.26v.72c0,1.52.16,2.96.47,4.31.31,1.35.8,2.54,1.47,3.56.67,1.02,1.52,1.82,2.56,2.41,1.04.58,2.28.88,3.72.88s2.61-.29,3.63-.88c1.04-.58,1.9-1.39,2.56-2.41.67-1.02,1.16-2.21,1.47-3.56.33-1.35.5-2.79.5-4.31v-.72c0-1.5-.17-2.92-.5-4.25-.31-1.35-.81-2.55-1.5-3.59-.67-1.04-1.52-1.85-2.56-2.44-1.02-.6-2.24-.91-3.66-.91s-2.65.3-3.69.91c-1.02.58-1.87,1.4-2.53,2.44-.66,1.04-1.16,2.24-1.47,3.59-.31,1.33-.47,2.75-.47,4.25ZM620.09,95.98v-.72c0-2.44.36-4.7,1.07-6.78.71-2.1,1.73-3.93,3.06-5.47,1.35-1.56,3-2.77,4.94-3.63,1.96-.88,4.17-1.31,6.62-1.31s4.69.44,6.62,1.31c1.96.85,3.62,2.06,4.97,3.63,1.35,1.54,2.39,3.36,3.1,5.47.71,2.08,1.06,4.34,1.06,6.78v.72c0,2.44-.35,4.7-1.06,6.78s-1.74,3.91-3.1,5.47c-1.35,1.54-3,2.75-4.94,3.63-1.94.85-4.13,1.28-6.59,1.28s-4.7-.43-6.66-1.28c-1.94-.88-3.58-2.08-4.94-3.63-1.36-1.56-2.39-3.39-3.1-5.47s-1.07-4.34-1.07-6.78ZM627.63,95.26v.72c0,1.52.16,2.96.47,4.31.32,1.35.8,2.54,1.47,3.56.67,1.02,1.52,1.82,2.56,2.41,1.04.58,2.28.88,3.72.88s2.6-.29,3.63-.88c1.04-.58,1.89-1.39,2.56-2.41.67-1.02,1.16-2.21,1.47-3.56.33-1.35.5-2.79.5-4.31v-.72c0-1.5-.16-2.92-.5-4.25-.32-1.35-.81-2.55-1.5-3.59-.66-1.04-1.52-1.85-2.56-2.44-1.02-.6-2.24-.91-3.66-.91s-2.65.3-3.69.91c-1.02.58-1.86,1.4-2.53,2.44-.67,1.04-1.16,2.24-1.47,3.59-.31,1.33-.47,2.75-.47,4.25ZM679.51,78.7h6.84v32.88c0,3.04-.65,5.63-1.94,7.75-1.29,2.13-3.1,3.74-5.41,4.84-2.31,1.13-4.99,1.69-8.03,1.69-1.29,0-2.73-.19-4.31-.56-1.56-.37-3.08-.98-4.56-1.81-1.46-.81-2.68-1.89-3.66-3.22l3.53-4.44c1.21,1.44,2.54,2.49,4,3.16,1.46.67,2.99,1,4.59,1,1.73,0,3.2-.32,4.4-.97,1.23-.62,2.18-1.55,2.84-2.78.67-1.23,1-2.73,1-4.5v-25.38l.69-7.66ZM656.54,95.98v-.66c0-2.56.32-4.9.94-7,.63-2.13,1.52-3.95,2.69-5.47,1.17-1.54,2.58-2.72,4.25-3.53,1.66-.83,3.55-1.25,5.66-1.25s4.06.4,5.6,1.19c1.56.79,2.86,1.93,3.9,3.41,1.04,1.46,1.86,3.21,2.44,5.25.61,2.02,1.06,4.27,1.34,6.75v2.09c-.27,2.42-.73,4.63-1.37,6.63-.65,2-1.5,3.73-2.56,5.19-1.06,1.46-2.37,2.58-3.94,3.38-1.54.79-3.36,1.19-5.47,1.19s-3.93-.43-5.59-1.28c-1.65-.85-3.06-2.05-4.25-3.59-1.17-1.54-2.06-3.35-2.69-5.44-.62-2.1-.94-4.39-.94-6.84ZM664.07,95.32v.66c0,1.54.15,2.98.43,4.31.32,1.33.78,2.51,1.41,3.53.64,1,1.46,1.79,2.44,2.38,1,.56,2.18.84,3.53.84,1.77,0,3.22-.37,4.34-1.13,1.14-.75,2.02-1.76,2.62-3.03.63-1.29,1.06-2.73,1.31-4.31v-5.66c-.12-1.23-.38-2.38-.78-3.44-.37-1.06-.88-1.99-1.53-2.78-.64-.81-1.46-1.44-2.44-1.87-.98-.46-2.14-.69-3.47-.69s-2.53.29-3.53.88c-1,.58-1.82,1.39-2.47,2.41-.63,1.02-1.09,2.21-1.41,3.56-.31,1.35-.47,2.8-.47,4.34ZM702.23,64.51v48.01h-7.56v-48.01h7.56ZM725.39,113.14c-2.5,0-4.76-.41-6.78-1.22-2-.83-3.71-1.99-5.13-3.47-1.39-1.48-2.47-3.22-3.22-5.22s-1.12-4.16-1.12-6.47v-1.25c0-2.65.38-5.04,1.16-7.19s1.84-3.98,3.22-5.5c1.38-1.54,3-2.72,4.88-3.53,1.87-.81,3.9-1.22,6.09-1.22,2.41,0,4.53.41,6.34,1.22,1.82.81,3.31,1.96,4.5,3.44,1.21,1.46,2.1,3.2,2.68,5.22.61,2.02.91,4.25.91,6.69v3.22h-26.13v-5.41h18.69v-.59c-.04-1.35-.32-2.63-.81-3.81-.48-1.19-1.22-2.15-2.22-2.88-1-.73-2.34-1.09-4-1.09-1.25,0-2.37.27-3.35.81-.96.52-1.76,1.28-2.4,2.28-.64,1-1.15,2.21-1.5,3.63-.33,1.4-.5,2.97-.5,4.72v1.25c0,1.48.2,2.85.59,4.13.42,1.25,1.02,2.34,1.82,3.28.79.94,1.75,1.68,2.88,2.22,1.12.52,2.4.78,3.84.78,1.82,0,3.43-.36,4.85-1.09s2.65-1.76,3.69-3.09l3.97,3.84c-.73,1.06-1.68,2.08-2.84,3.06-1.17.96-2.6,1.74-4.28,2.34-1.66.6-3.6.91-5.81.91Z"/>
    <rect class="cls-1" x=".5" y=".5" width="795.52" height="178.31" rx="16" ry="16"/>
  </g>
</svg>